<?xml version="1.0" encoding="UTF-8"?>
<svg xmlns="http://www.w3.org/2000/svg" viewBox="0 0 582.5 560.05">
  <defs>
    <style>
      .cls-1 {
        letter-spacing: 0em;
      }

      .cls-2, .cls-3, .cls-4, .cls-5, .cls-6, .cls-7, .cls-8, .cls-9, .cls-10, .cls-11, .cls-12, .cls-13, .cls-14, .cls-15, .cls-16, .cls-17, .cls-18 {
        stroke-miterlimit: 10;
      }

      .cls-2, .cls-3, .cls-5, .cls-8, .cls-9, .cls-10, .cls-11, .cls-13, .cls-14, .cls-15, .cls-16, .cls-18 {
        stroke-linecap: round;
      }

      .cls-2, .cls-19, .cls-20, .cls-21, .cls-22, .cls-23, .cls-24, .cls-25 {
        fill: #fff;
      }

      .cls-2, .cls-16 {
        stroke: #e74c3c;
        stroke-width: 6.08px;
      }

      .cls-26 {
        fill: #f1c40f;
      }

      .cls-3 {
        stroke: #16a085;
        stroke-width: 3.29px;
      }

      .cls-3, .cls-4, .cls-5, .cls-6, .cls-8, .cls-9, .cls-10, .cls-11, .cls-13, .cls-14, .cls-15, .cls-16, .cls-17, .cls-18 {
        fill: none;
      }

      .cls-4 {
        stroke-width: .72px;
      }

      .cls-4, .cls-8 {
        stroke: #fff;
      }

      .cls-5 {
        stroke: #d35400;
      }

      .cls-5, .cls-6, .cls-11 {
        stroke-width: 4px;
      }

      .cls-27 {
        font-size: 11px;
      }

      .cls-27, .cls-20, .cls-22, .cls-28 {
        font-family: Exo-Italic, 'Exo Italic';
        font-style: italic;
      }

      .cls-27, .cls-28, .cls-29 {
        fill: #d9f5fc;
      }

      .cls-30 {
        fill: #2c3e50;
      }

      .cls-6 {
        stroke: #2980b9;
      }

      .cls-31 {
        fill: #2980b9;
      }

      .cls-7 {
        stroke-width: .78px;
      }

      .cls-7, .cls-10, .cls-12, .cls-15 {
        stroke: #34495e;
      }

      .cls-7, .cls-32, .cls-12 {
        fill: #34495e;
      }

      .cls-8, .cls-17 {
        stroke-width: 1.33px;
      }

      .cls-33 {
        fill: #e74c3c;
      }

      .cls-34 {
        fill: #3498db;
      }

      .cls-9 {
        stroke-width: 7px;
      }

      .cls-9, .cls-14 {
        stroke: #2c3e50;
      }

      .cls-35 {
        fill: #c0392b;
      }

      .cls-36 {
        letter-spacing: -.01em;
      }

      .cls-20 {
        font-size: 13px;
      }

      .cls-37 {
        letter-spacing: -.01em;
      }

      .cls-10 {
        stroke-width: 1.02px;
      }

      .cls-21 {
        opacity: .58;
      }

      .cls-21, .cls-23, .cls-24, .cls-25 {
        mix-blend-mode: overlay;
      }

      .cls-22, .cls-28 {
        font-size: 12px;
      }

      .cls-38 {
        fill: #f4d345;
      }

      .cls-39 {
        isolation: isolate;
      }

      .cls-40 {
        fill: #f39c12;
      }

      .cls-11 {
        stroke: #c0392b;
      }

      .cls-41 {
        letter-spacing: 0em;
      }

      .cls-42 {
        fill: #9b59b6;
      }

      .cls-12 {
        stroke-width: 1.08px;
      }

      .cls-13 {
        stroke-width: 2.46px;
      }

      .cls-13, .cls-17 {
        stroke: #d9f5fc;
      }

      .cls-43 {
        fill: #1abc9c;
      }

      .cls-14 {
        stroke-width: 5px;
      }

      .cls-44 {
        fill: #16a085;
      }

      .cls-15 {
        stroke-width: 2.03px;
      }

      .cls-45 {
        fill: #8e44ad;
      }

      .cls-23 {
        opacity: .26;
      }

      .cls-24 {
        opacity: .7;
      }

      .cls-46 {
        fill: #b5e1f4;
      }

      .cls-25 {
        opacity: .3;
      }

      .cls-18 {
        stroke: #b5e1f4;
        stroke-width: 2.66px;
      }

      .cls-47 {
        fill: #f7f7f7;
      }

      .cls-48 {
        fill: #d35400;
      }
    </style>
  </defs>
  <g class="cls-39">
    <g id="Layer_2" data-name="Layer 2">
      <g id="objects">
        <g>
          <path class="cls-18" d="M217.58,48.88c18.7-4.67,38.28-7.15,58.43-7.15,105.67,0,195.42,68.21,227.6,163.01"/>
          <path class="cls-18" d="M440.33,457.36c-42.97,40.29-100.76,64.96-164.32,64.96-69.93,0-132.88-29.87-176.79-77.55"/>
          <circle class="cls-29" cx="275.91" cy="282.02" r="226.98"/>
          <circle class="cls-46" cx="275.91" cy="282.02" r="207.02"/>
          <circle class="cls-46" cx="275.91" cy="282.02" r="207.02"/>
          <path class="cls-13" d="M204.25,23.76c23.42-6.67,48.14-10.25,73.7-10.25,128.38,0,235.71,90.15,262.13,210.6"/>
          <circle class="cls-29" cx="305.69" cy="13.51" r="13.51" transform="translate(79.98 220.11) rotate(-45)"/>
          <circle class="cls-29" cx="437.54" cy="65.41" r="9.82" transform="translate(81.9 328.55) rotate(-45)"/>
          <circle class="cls-29" cx="530.28" cy="190.95" r="7.37" transform="translate(-32.76 216.42) rotate(-22.39)"/>
          <path class="cls-13" d="M482.86,455.16c-49.23,58.15-122.76,95.06-204.91,95.06-87.14,0-164.58-41.53-213.6-105.88"/>
          <circle class="cls-29" cx="419.03" cy="510.79" r="13.51"/>
          <circle class="cls-29" cx="283.58" cy="550.23" r="9.82"/>
          <circle class="cls-29" cx="116.3" cy="496.41" r="7.37" transform="translate(-393.55 495.16) rotate(-76.67)"/>
          <line class="cls-9" x1="560.5" y1="430.53" x2="3.5" y2="430.53"/>
          <line class="cls-14" x1="343.5" y1="186.53" x2="49.5" y2="186.53"/>
          <path class="cls-38" d="M144.65,338.53c0-7.08,5.74-13.5,12.81-13.5H52.3c-7.08,0-12.81,6.42-12.81,13.5s5.74,13.5,12.81,13.5h105.16c-7.08,0-12.81-6.42-12.81-13.5Z"/>
          <path class="cls-11" d="M155.5,326.03H52.3c-7.08,0-12.81,5.92-12.81,13s5.74,13,12.81,13h103.2"/>
          <line class="cls-8" x1="51.14" y1="332.26" x2="141.66" y2="332.26"/>
          <line class="cls-8" x1="48.47" y1="336.79" x2="138.99" y2="336.79"/>
          <line class="cls-8" x1="48.47" y1="341.31" x2="138.99" y2="341.31"/>
          <line class="cls-8" x1="51.14" y1="345.84" x2="141.66" y2="345.84"/>
          <path class="cls-40" d="M32.99,373.03c0-7.08-5.74-13-12.81-13h105.16c7.08,0,12.81,5.92,12.81,13s-5.74,13-12.81,13H20.17c7.08,0,12.81-5.92,12.81-13Z"/>
          <path class="cls-5" d="M21.5,360.03h103.84c7.08,0,12.81,6.42,12.81,13.5s-5.74,13.5-12.81,13.5H21.5"/>
          <line class="cls-8" x1="126.68" y1="366.87" x2="36.16" y2="366.87"/>
          <line class="cls-8" x1="129.34" y1="371.4" x2="38.82" y2="371.4"/>
          <line class="cls-8" x1="129.34" y1="375.92" x2="38.82" y2="375.92"/>
          <line class="cls-8" x1="126.68" y1="380.45" x2="36.16" y2="380.45"/>
          <path class="cls-38" d="M155.3,408.03c0-7.08,5.74-13,12.81-13H37.66c-7.08,0-12.81,5.92-12.81,13s5.74,13,12.81,13h130.46c-7.08,0-12.81-5.92-12.81-13Z"/>
          <path class="cls-11" d="M166.5,395.03H37.66c-7.08,0-12.81,5.92-12.81,13s5.74,13,12.81,13h128.84"/>
          <line class="cls-8" x1="36.49" y1="401.48" x2="152.31" y2="401.48"/>
          <line class="cls-8" x1="33.83" y1="406.01" x2="149.64" y2="406.01"/>
          <line class="cls-8" x1="33.83" y1="410.53" x2="149.64" y2="410.53"/>
          <line class="cls-8" x1="36.49" y1="415.06" x2="152.31" y2="415.06"/>
          <path class="cls-32" d="M358.86,231.11h-160.82c-11.63,0-21.2,9.74-21.2,21.39v111.23c0,11.66,9.57,20.8,21.2,20.8h52.01v13.34h55.91v-13.34h52.89c11.63,0,21.65-9.14,21.65-20.8v-111.23c0-11.66-10.02-21.39-21.65-21.39Z"/>
          <path class="cls-30" d="M254.74,403.21h47.89c9.19,0,16.66,7.46,16.66,16.66v2.02h-81.2v-2.02c0-9.19,7.46-16.66,16.66-16.66Z"/>
          <path class="cls-30" d="M254.74,403.21h47.89c9.19,0,16.66,7.46,16.66,16.66v2.02h-81.2v-2.02c0-9.19,7.46-16.66,16.66-16.66Z"/>
          <rect class="cls-34" x="187.49" y="241.78" width="181.04" height="132.08" rx="11.99" ry="11.99"/>
          <path class="cls-30" d="M254.74,403.21h47.89c9.19,0,16.66,7.46,16.66,16.66v2.02h-81.2v-2.02c0-9.19,7.46-16.66,16.66-16.66Z"/>
          <path class="cls-30" d="M254.74,403.21h47.89c9.19,0,16.66,7.46,16.66,16.66v2.02h-81.2v-2.02c0-9.19,7.46-16.66,16.66-16.66Z"/>
          <rect class="cls-34" x="187.49" y="241.78" width="181.04" height="132.08" rx="11.99" ry="11.99"/>
          <path class="cls-30" d="M254.74,403.21h47.89c9.19,0,16.66,7.46,16.66,16.66v2.02h-81.2v-2.02c0-9.19,7.46-16.66,16.66-16.66Z"/>
          <path class="cls-30" d="M254.74,403.21h47.89c9.19,0,16.66,7.46,16.66,16.66v2.02h-81.2v-2.02c0-9.19,7.46-16.66,16.66-16.66Z"/>
          <rect class="cls-43" x="187.49" y="241.78" width="181.04" height="132.08" rx="11.99" ry="11.99"/>
          <path class="cls-32" d="M254.74,403.21h47.89c9.19,0,16.66,7.46,16.66,16.66v2.02h-81.2v-2.02c0-9.19,7.46-16.66,16.66-16.66Z"/>
          <polygon class="cls-31" points="326.29 338.93 331.1 328.26 335.9 338.93 326.29 338.93"/>
          <polygon class="cls-31" points="345.17 295.68 278.01 323.48 210.86 295.68 278.01 267.88 345.17 295.68"/>
          <polygon class="cls-31" points="345.17 295.68 278.01 323.48 278.01 267.88 345.17 295.68"/>
          <path class="cls-31" d="M276.77,326.39l-39.27-16.27v18.49c0,7.97,18.21,14.44,40,14.44s40-6.46,40-14.44v-19.09l-40.73,16.87Z"/>
          <line class="cls-6" x1="331.1" y1="296.33" x2="331.1" y2="329.61"/>
          <circle class="cls-31" cx="331.1" cy="329.89" r="3.57"/>
          <path class="cls-25" d="M356.54,241.78h-78.53v132.08h78.53c6.62,0,11.99-5.37,11.99-11.99v-108.09c0-6.62-5.37-11.99-11.99-11.99Z"/>
          <ellipse class="cls-33" cx="278.68" cy="143.48" rx="29.85" ry="29.64"/>
          <path class="cls-25" d="M278.68,113.84v59.28c16.48,0,29.85-13.27,29.85-29.64s-13.36-29.64-29.85-29.64Z"/>
          <ellipse class="cls-47" cx="278.68" cy="143.48" rx="25.57" ry="25.4"/>
          <path class="cls-12" d="M259.36,143.48c0,.79-.64,1.43-1.44,1.43s-1.44-.64-1.44-1.43.64-1.43,1.44-1.43,1.44.64,1.44,1.43Z"/>
          <rect class="cls-35" x="257.9" y="169.75" width="4.3" height="9.78" rx="1.95" ry="1.95" transform="translate(199.71 -132.74) rotate(45.01)"/>
          <rect class="cls-35" x="295.17" y="169.75" width="4.3" height="9.78" rx="1.95" ry="1.95" transform="translate(631.04 87.9) rotate(135)"/>
          <path class="cls-35" d="M252.39,124.56c3.6-5.45,8.97-9.64,15.29-11.79-1.69-2.93-4.85-4.93-8.46-4.93-5.37,0-9.76,4.39-9.76,9.76,0,2.72,1.13,5.18,2.93,6.95Z"/>
          <path class="cls-19" d="M278.68,118.08v50.79c14.12,0,25.57-11.37,25.57-25.4s-11.45-25.4-25.57-25.4Z"/>
          <path class="cls-12" d="M300.63,144.22c0,.79-.64,1.43-1.44,1.43s-1.44-.64-1.44-1.43.64-1.43,1.44-1.43,1.44.64,1.44,1.43Z"/>
          <line class="cls-10" x1="278.68" y1="143.48" x2="290.47" y2="131.7"/>
          <line class="cls-15" x1="278.68" y1="143.48" x2="288.78" y2="156.82"/>
          <ellipse class="cls-7" cx="278.68" cy="143.48" rx="2.39" ry="2.37"/>
          <path class="cls-35" d="M304.68,124.56c-3.6-5.45-8.97-9.64-15.29-11.79,1.69-2.93,4.85-4.93,8.46-4.93,5.37,0,9.76,4.39,9.76,9.76,0,2.72-1.13,5.18-2.93,6.95Z"/>
          <path class="cls-12" d="M280.15,122.93c0,.79-.64,1.43-1.44,1.43s-1.44-.64-1.44-1.43.64-1.43,1.44-1.43,1.44.64,1.44,1.43Z"/>
          <path class="cls-12" d="M280.15,164.05c0,.79-.64,1.43-1.44,1.43s-1.44-.64-1.44-1.43.64-1.43,1.44-1.43,1.44.64,1.44,1.43Z"/>
          <path class="cls-3" d="M103.86,275.51c0-7.13,4.46-12.91,9.97-12.91"/>
          <path class="cls-43" d="M101.68,252.59c2.7,5.92-1.77,11.52-1.77,11.52,0,0-8-2.15-10.71-8.07-2.7-5.92-2.57-17.82-2.57-17.82,0,0,12.34,8.45,15.05,14.37Z"/>
          <path class="cls-23" d="M101.68,252.59c2.7,5.92-1.77,11.52-1.77,11.52l-13.28-25.89s12.34,8.45,15.05,14.37Z"/>
          <ellipse class="cls-35" cx="103.43" cy="294.26" rx="27.9" ry="25.67"/>
          <circle class="cls-33" cx="113.92" cy="293.23" r="9.42"/>
          <polyline class="cls-16" points="517.65 399.82 569.32 292.76 446.68 179.81"/>
          <circle class="cls-35" cx="439.05" cy="181.14" r="19.97" transform="translate(-35.89 184.23) rotate(-22.79)"/>
          <circle class="cls-26" cx="410.3" cy="225.91" r="21.47" transform="translate(180.24 633.9) rotate(-89.42)"/>
          <circle class="cls-2" cx="569.32" cy="292.76" r="10.14"/>
          <path class="cls-33" d="M489.86,399.82h56.1c7.82,0,14.17,6.35,14.17,14.17v7.9h-84.44v-7.9c0-7.82,6.35-14.17,14.17-14.17Z"/>
          <path class="cls-35" d="M475.96,410.03c-.23,1-.46,2.89-.46,3.97v7.03h85v-7.03c0-1.08-.59-2.97-.82-3.97h-83.72Z"/>
          <path class="cls-33" d="M455.56,254.41c15.98-24.83,8.81-57.92-16.02-73.91-24.83-15.99-57.92-8.81-73.91,16.02l89.93,57.89Z"/>
          <circle class="cls-33" cx="439.55" cy="180.39" r="13.5"/>
          <circle class="cls-24" cx="400.54" cy="227.87" r="6"/>
          <rect class="cls-30" x="250.06" y="384.54" width="55.91" height="13.34"/>
          <rect class="cls-40" x="139.17" y="82.26" width="18.04" height="96.54"/>
          <rect class="cls-33" x="141.7" y="89.76" width="12.98" height="7.06"/>
          <rect class="cls-33" x="141.7" y="99.48" width="12.98" height="3.83"/>
          <rect class="cls-33" x="141.7" y="164.14" width="12.98" height="7.06"/>
          <rect class="cls-33" x="141.7" y="157.65" width="12.98" height="3.83"/>
          <rect class="cls-25" x="148.19" y="82.26" width="9.02" height="96.54"/>
          <rect class="cls-43" x="185.6" y="51.06" width="18.04" height="127.75" transform="translate(-20.4 45.25) rotate(-12.61)"/>
          <rect class="cls-31" x="177.37" y="62.17" width="12.98" height="9.35" transform="translate(-10.16 41.75) rotate(-12.61)"/>
          <rect class="cls-31" x="179.71" y="74.78" width="12.98" height="5.06" transform="translate(-12.38 42.51) rotate(-12.61)"/>
          <rect class="cls-31" x="198.85" y="158.21" width="12.98" height="9.35" transform="translate(-30.6 48.75) rotate(-12.61)"/>
          <rect class="cls-31" x="196.51" y="149.88" width="12.98" height="5.06" transform="translate(-28.37 47.99) rotate(-12.61)"/>
          <rect class="cls-25" x="194.51" y="50.08" width="9.02" height="127.75" transform="translate(-20.07 46.19) rotate(-12.61)"/>
          <rect class="cls-33" x="89.07" y="89.88" width="31.95" height="88.93"/>
          <rect class="cls-40" x="89.07" y="98.74" width="31.95" height="9.1"/>
          <rect class="cls-40" x="89.07" y="160.75" width="31.95" height="9.1"/>
          <rect class="cls-25" x="105.05" y="89.88" width="15.97" height="88.93"/>
          <rect class="cls-31" x="122.93" y="102.24" width="14.31" height="76.57"/>
          <rect class="cls-25" x="130.08" y="102.24" width="7.15" height="76.57"/>
          <rect class="cls-45" x="159.14" y="89.33" width="18.04" height="89.48"/>
          <rect class="cls-25" x="168.16" y="89.33" width="9.02" height="89.48"/>
          <rect class="cls-42" x="424.8" y="310.39" width="8.84" height="86.68" transform="translate(-109.84 216.72) rotate(-25.23)"/>
          <rect class="cls-21" x="429.09" y="309.41" width="4.42" height="86.68" transform="translate(-109.22 217.52) rotate(-25.23)"/>
          <polygon class="cls-19" points="406.24 316.17 401.35 294.86 414.68 312.19 406.24 316.17"/>
          <polygon class="cls-42" points="408.03 303.56 401.36 294.89 403.81 305.55 408.03 303.56"/>
          <rect class="cls-44" x="456.37" y="307.69" width="7.36" height="72.2" transform="translate(129.87 -126.12) rotate(18.14)"/>
          <rect class="cls-21" x="460.03" y="308.28" width="3.68" height="72.2" transform="translate(130.14 -126.65) rotate(18.14)"/>
          <polygon class="cls-19" points="467.58 307.95 476.82 292.25 474.97 310.37 467.58 307.95"/>
          <polygon class="cls-44" points="475.88 301.34 476.81 292.28 472.19 300.13 475.88 301.34"/>
          <rect class="cls-44" x="435.63" y="320.9" width="7.36" height="72.2" transform="translate(-85.26 144.25) rotate(-17.02)"/>
          <rect class="cls-21" x="439.31" y="320.34" width="3.68" height="72.2" transform="translate(-85.02 144.76) rotate(-17.02)"/>
          <polygon class="cls-19" points="424.82 323.31 423.33 305.16 432.25 321.04 424.82 323.31"/>
          <polygon class="cls-44" points="427.8 313.13 423.33 305.19 424.08 314.27 427.8 313.13"/>
          <rect class="cls-35" x="440.41" y="304.92" width="7.45" height="73.05" transform="translate(108.8 -107.32) rotate(15.68)"/>
          <rect class="cls-21" x="444.14" y="305.44" width="3.72" height="73.05" transform="translate(109 -107.8) rotate(15.68)"/>
          <polygon class="cls-19" points="450.19 304.89 458.84 288.62 457.76 307.02 450.19 304.89"/>
          <polygon class="cls-35" points="458.3 297.85 458.84 288.65 454.51 296.78 458.3 297.85"/>
          <rect class="cls-48" x="442" y="289.64" width="8.84" height="86.68" transform="translate(-56.52 93.77) rotate(-11.28)"/>
          <rect class="cls-21" x="446.46" y="289.19" width="4.42" height="86.68" transform="translate(-56.39 94.21) rotate(-11.28)"/>
          <polygon class="cls-19" points="433.17 291.01 433.56 269.15 442.31 289.18 433.17 291.01"/>
          <polygon class="cls-48" points="437.94 279.2 433.57 269.18 433.37 280.11 437.94 279.2"/>
          <path class="cls-34" d="M421.15,350.14h41.4v62.1c0,5.33-4.33,9.65-9.65,9.65h-22.09c-5.33,0-9.65-4.33-9.65-9.65v-62.1h0Z"/>
          <path class="cls-31" d="M452.89,421.89h-22.09c-5.33,0-9.65-4.32-9.65-9.65v-62.1l41.4,62.1c0,5.33-4.32,9.65-9.65,9.65Z"/>
          <rect class="cls-19" x="418.86" y="349.41" width="45.98" height="4.04" rx="2.02" ry="2.02"/>
          <path class="cls-19" d="M461.12,367.66h-38.54c-1.74,0-3.16-1.41-3.16-3.16h0c0-1.74,1.41-3.16,3.16-3.16h38.54c1.74,0,3.16,1.41,3.16,3.16h0c0,1.74-1.41,3.16-3.16,3.16Z"/>
          <text class="cls-22" transform="translate(280.15 458)"><tspan x="0" y="0">ax</tspan></text>
          <text class="cls-22" transform="translate(291.49 454.01) scale(.58)"><tspan x="0" y="0">2 </tspan></text>
          <text class="cls-22" transform="translate(296.56 458)"><tspan class="cls-41" x="0" y="0">+ </tspan><tspan class="cls-36" x="9.7" y="0">b</tspan><tspan x="16.36" y="0">x + c = 0</tspan></text>
          <text class="cls-27" transform="translate(268.46 219.81)"><tspan x="0" y="0">ax</tspan></text>
          <text class="cls-27" transform="translate(278.85 216.14) scale(.58)"><tspan x="0" y="0">2 </tspan></text>
          <text class="cls-27" transform="translate(283.5 219.81)"><tspan x="0" y="0">+ </tspan><tspan class="cls-37" x="8.89" y="0">b</tspan><tspan x="14.99" y="0">x + c = 0</tspan></text>
          <text class="cls-28" transform="translate(331.26 134.07)"><tspan x="0" y="0">ax</tspan></text>
          <text class="cls-28" transform="translate(342.6 130.08) scale(.58)"><tspan x="0" y="0">2</tspan></text>
          <text class="cls-28" transform="translate(346.19 134.07)"><tspan x="0" y="0" xml:space="preserve"> + </tspan><tspan class="cls-36" x="12.24" y="0">b</tspan><tspan class="cls-1" x="18.9" y="0">x = 0</tspan></text>
          <text class="cls-20" transform="translate(89.64 223.91)"><tspan x="0" y="0">x </tspan></text>
          <text class="cls-20" transform="translate(98.42 219.58) scale(.58)"><tspan x="0" y="0">1</tspan></text>
          <text class="cls-20" transform="translate(102.3 223.91)"><tspan x="0" y="0" xml:space="preserve"> = </tspan></text>
          <text class="cls-20" transform="translate(155.18 234.39)"><tspan x="0" y="0">2 a</tspan></text>
          <text class="cls-20" transform="translate(120.97 214.89)"><tspan x="0" y="0" xml:space="preserve">- b +    b </tspan></text>
          <text class="cls-20" transform="translate(166.79 210.56) scale(.58)"><tspan x="0" y="0">2</tspan></text>
          <text class="cls-20" transform="translate(170.68 214.89)"><tspan x="0" y="0" xml:space="preserve"> - 4 a c </tspan></text>
          <polyline class="cls-4" points="149.42 206.68 152.74 215.53 159.92 201.15 216.55 201.15"/>
          <line class="cls-4" x1="119.69" y1="219.61" x2="216.87" y2="219.61"/>
          <g>
            <path class="cls-17" d="M146.98,264.4c4.65-8.06,10.81-13.22,13.76-11.52,2.94,1.7,1.56,9.61-3.1,17.67-4.65,8.06-10.81,13.22-13.76,11.52-2.94-1.7-1.56-9.61,3.1-17.67Z"/>
            <path class="cls-17" d="M152.31,261.32c9.31,0,16.86,2.75,16.86,6.15,0,3.4-7.55,6.15-16.86,6.15-9.31,0-16.86-2.75-16.86-6.15,0-3.4,7.55-6.15,16.86-6.15Z"/>
            <path class="cls-17" d="M157.64,264.4c4.65,8.06,6.04,15.98,3.1,17.67-2.94,1.7-9.1-3.46-13.76-11.52-4.65-8.06-6.04-15.98-3.1-17.67,2.94-1.7,9.1,3.46,13.76,11.52Z"/>
          </g>
          <path class="cls-29" d="M153.69,267.47c0,.76-.62,1.38-1.38,1.38s-1.38-.62-1.38-1.38.62-1.38,1.38-1.38,1.38.62,1.38,1.38Z"/>
          <polygon class="cls-17" points="220.51 471.33 220.51 462.36 228.28 457.87 236.05 462.36 236.05 471.33 228.28 475.82 220.51 471.33"/>
          <polygon class="cls-17" points="230.31 453.65 230.31 444.67 238.08 440.19 245.85 444.67 245.85 453.65 238.08 458.13 230.31 453.65"/>
          <line class="cls-17" x1="248.51" y1="444.67" x2="248.51" y2="453.65"/>
          <line class="cls-17" x1="258.49" y1="462.36" x2="258.49" y2="471.33"/>
          <line class="cls-17" x1="227.64" y1="453.65" x2="227.64" y2="444.67"/>
          <line class="cls-17" x1="217.67" y1="471.33" x2="217.67" y2="462.36"/>
          <polygon class="cls-17" points="240.11 471.33 240.11 462.36 247.88 457.87 255.65 462.36 255.65 471.33 247.88 475.82 240.11 471.33"/>
          <polygon class="cls-17" points="374.31 413.16 374.31 406.46 380.11 403.12 385.91 406.46 385.91 413.16 380.11 416.51 374.31 413.16"/>
          <polygon class="cls-17" points="381.62 399.96 381.62 393.26 387.42 389.92 393.22 393.26 393.22 399.96 387.42 403.31 381.62 399.96"/>
          <polygon class="cls-17" points="388.94 413.16 388.94 406.46 394.74 403.12 400.54 406.46 400.54 413.16 394.74 416.51 388.94 413.16"/>
        </g>
      </g>
    </g>
  </g>
</svg>