<?xml version="1.0" encoding="UTF-8"?>
<svg id="Layer_2" data-name="Layer 2" xmlns="http://www.w3.org/2000/svg" viewBox="0 0 275.41 192.73">
  <defs>
    <style>
      .cls-1 {
        fill: #8ecae6;
      }

      .cls-2 {
        fill: #023047;
      }
    </style>
  </defs>
  <g id="Layer_1-2" data-name="Layer 1">
    <path class="cls-1" d="M237.99,190.63s-75.21,2.1-100.29,2.1-100.29-2.1-100.29-2.1c-19.42,0-35.32-15.89-35.32-35.32,0,0-2.1-44.19-2.1-58.95s2.1-58.95,2.1-58.95C2.1,17.99,17.99,2.1,37.42,2.1c0,0,75.21-2.1,100.29-2.1s100.29,2.1,100.29,2.1c19.42,0,35.32,15.89,35.32,35.32,0,0,2.1,44.15,2.1,58.95s-2.1,58.95-2.1,58.95c0,19.42-15.89,35.32-35.32,35.32Z"/>
    <g id="Object">
      <g>
        <polygon class="cls-2" points="239 103.11 239 65.12 233.2 67.08 233.2 103.11 239 103.11"/>
        <path class="cls-2" d="M204.11,87.72l-65,22.04c-.6.21-1.23.31-1.85.31s-1.26-.1-1.86-.31l-65-22.04v54.51h.07l-.15.75c0,6.49,29.97,20.96,66.9,20.96s66.82-14.48,66.82-20.96l-.15-.75h.23v-54.51Z"/>
        <polygon class="cls-2" points="70.4 76.95 137.26 99.62 204.11 76.95 233.2 67.08 239 65.12 242.06 64.08 137.26 28.79 32.45 64.08 70.4 76.95"/>
        <path class="cls-2" d="M229.25,112.02v22.18c0,3.79,3.06,6.85,6.85,6.85s6.85-3.07,6.85-6.85v-22.18c0-1.87-.76-3.57-1.97-4.81h-9.76c-1.22,1.24-1.98,2.93-1.98,4.81Z"/>
        <polygon class="cls-2" points="230.35 103.11 230.35 107.21 231.22 107.21 240.98 107.21 241.85 107.21 241.85 103.11 239 103.11 233.2 103.11 230.35 103.11"/>
      </g>
    </g>
  </g>
</svg>